<?xml version="1.0" encoding="UTF-8"?>
<svg id="Layer_1" data-name="Layer 1" xmlns="http://www.w3.org/2000/svg" width="64" height="64" version="1.1" viewBox="0 0 64 64">
  <defs>
    <style>
      .cls-1 {
        fill: #e42236;
        stroke-width: 0px;
      }
    </style>
  </defs>
  <path class="cls-1" d="M4,42.556c1-.556,5.677-2.511,8.788-2.999-1.989,3.4-7.788,4.198-8.788,4.321s-1-.766,0-1.322Z"/>
  <path class="cls-1" d="M33.156,57.095c-.869-1.859-1.395-3.824-1.787-5.827-.218-1.115-.225-2.173,1.155-2.843.969,2.885.807,5.859,1.515,8.67h-.884Z"/>
  <path class="cls-1" d="M53.813,18.265c.798.092,1.427-.158,1.734.332.369.59-.055,1.171-.434,1.583-1.958,2.122-4.152,3.921-7.059,4.586-.619.142-1.33.315-1.747-.461-.327-.608-.143-1.246.237-1.641,2.092-2.179,4.32-4.174,7.27-4.399Z"/>
  <path class="cls-1" d="M24.81,16.895c-.099.449.147,1.068-.395,1.366-.582.32-.943-.215-1.325-.523-2.58-2.076-4.585-4.546-5.316-7.862-.159-.722-.307-1.508.578-1.904.722-.323,1.393.035,1.741.58,1.46,2.283,3.233,4.364,4.43,6.816.234.48.277.982.286,1.526Z"/>
  <path class="cls-1" d="M19.324,22.215c-2.027-.638-3.85-1.155-5.632-1.789-1.488-.53-2.711-1.411-3.326-2.976-.374-.952-.165-1.369.897-1.342.685.017,1.322.211,1.887.529,1.594.895,3.164,1.835,4.715,2.803.907.566,1.457,1.386,1.458,2.775Z"/>
  <path class="cls-1" d="M32.125,14.714c-.01.188.013.56-.059.914-.085.417-.161.933-.695.997-.683.082-.79-.463-.91-.975-.597-2.556-1.19-5.113-1.818-7.662-.159-.646-.137-1.181.536-1.459.658-.271,1.122.113,1.51.588.671.823.942,1.826,1.067,2.832.189,1.521.244,3.058.369,4.765Z"/>
  <path class="cls-1" d="M36.366,16.394c.277-3.116,2.011-5.286,4.303-7.068.839-.652,1.357-.185,1.33,1.069-.057,2.598-2.595,5.363-5.633,5.999Z"/>
  <path class="cls-1" d="M42.51,19.666c-1.274.014-1.548-.364-1.09-1.583.711-1.89,2.016-3.18,4.008-3.643,1.027-.238,1.499.1,1.16,1.294-.666,2.348-2.217,3.911-4.079,3.931Z"/>
  <path class="cls-1" d="M15.822,44.243c-1.221,3.019-3.013,5.019-5.862,6.182-.061-3.174,2.183-5.638,5.862-6.182Z"/>
  <path class="cls-1" d="M16.351,54.886c-.361-2.63-.388-5.119,1.697-7.055.316-.293.659-.66,1.129-.485.521.193.374.738.373,1.129-.007,2.634-1.643,4.494-3.199,6.411Z"/>
  <path class="cls-1" d="M15.226,27.762c-2.672.878-4.9.836-6.868-.887-.318-.278-.766-.56-.672-1.039.108-.553.666-.46,1.075-.502,2.441-.255,4.542.411,6.465,2.428Z"/>
  <path class="cls-1" d="M39.014,46.038c2.467,1.701,3.158,3.98,4.271,5.973.175.314.11.596-.185.763-.285.162-.658.115-.858-.109-1.585-1.781-3.417-3.453-3.227-6.627Z"/>
  <path class="cls-1" d="M24.207,54.916c-.525-2.092-.162-4.018.19-5.937.068-.37.39-.604.807-.608.266-.002.421.199.411.404-.09,1.873.492,3.8-.436,5.605-.14.273-.388.426-.972.536Z"/>
  <path class="cls-1" d="M5.808,33.685c2.094-.503,3.628-1.219,5.281-.383.24.121.561.351.589.563.049.375-.3.598-.645.719-1.689.59-3.257.315-5.224-.899Z"/>
  <path class="cls-1" d="M43.336,30.538c-.069-1.143-.051-2.457-.315-3.763-.91-4.489-3.268-6.562-7.869-6.767-1.097-.049-2.214-.058-3.298.09-7.768,1.056-13.088,5.523-14.81,12.19-1.724,6.68,1.695,12.188,8.169,13.236,2.06.334,4.102.022,6.126-.366,7.741-1.486,12.191-6.85,11.996-14.619ZM23.469,36.153h-1.015v-1.198h1.015v1.198ZM25.187,36.972h-1.015v-1.196h1.015v1.196ZM29.844,35.555h-1.015v-1.198h1.015v1.198ZM35.026,37.114h-1.014v-1.196h1.014v1.196ZM33.306,34.956v-1.196h1.015v1.196h-1.015ZM35.163,32.963h-1.015v-1.196h1.015v1.196ZM38.325,35.917h-1.015v-1.198h1.015v1.198ZM39.973,36.203h-1.015v-1.198h1.015v1.198ZM40.927,34.612v-.852h-4.724v2.443h-.795v-6.031h-2.938l.098,4.964.021,1.067h-1.547l.055-.987.063-1.133-1.052.059v-1.012l-2.74.06.073,2.226.027.788-.973-.049-.128-.681-.864-4.606-1.151,3.613-2.52.02v1.703h-.795v-3.838l-1.674-.072c.195-.923.486-1.745.621-2.057,2.035-4.659,5.941-6.956,10.701-7.889,7.126-1.399,10.448,1.408,10.498,8.676.008,1.139.11,2.293-.257,3.588Z"/>
  <path class="cls-1" d="M56.21,27.744c-.021.615-.365,1.377-.761,1.846-.866,1.012-2.514,1.158-3.755,1.189-.72.021-1.45-.01-2.169-.052-.626-.042-1.189-.136-1.669-.553-.094-.073-.136-.167-.146-.271,0-.021-.01-.042-.01-.073v-.031c0-.052.01-.094.031-.136,0-.042.021-.083.042-.125.094-.167.177-.334.334-.459.323-.24.709-.417,1.053-.626.688-.396,1.377-.782,2.096-1.126,1.126-.542,2.618-1.314,3.901-.907.605.198,1.085.647,1.053,1.325Z"/>
  <path class="cls-1" d="M59.871,37.997c-.344.584-1.231.668-1.825.751-1.784.261-3.588.021-5.319-.417-.876-.219-1.742-.49-2.597-.782-.709-.24-1.439-.438-2.055-.866-.01,0-.01-.01-.021-.01-.052-.042-.115-.083-.167-.125-.083-.104-.177-.198-.261-.302-.323-.365-.083-.834.365-.887,2.086-.261,4.203-.271,6.289,0,.855.104,1.71.25,2.555.438.793.188,1.731.344,2.461.73.521.292.918.887.574,1.471Z"/>
  <path class="cls-1" d="M51.965,46.727c-.302.396-.647.428-1.116.365-.48-.063-.96-.136-1.429-.229-.876-.167-1.846-.334-2.66-.72-.772-.375-1.158-1.241-1.481-1.992-.355-.834-.605-1.7-.761-2.597-.01-.052-.01-.094-.01-.136,0-.031.01-.063.01-.083.01-.136.083-.271.24-.365.156-.094.323-.219.49-.271.355-.094.845.229,1.126.417.688.448,1.293,1.033,1.909,1.564,1.252,1.085,2.576,2.107,3.598,3.411.136.167.24.438.083.636Z"/>
</svg>